<?xml version="1.0" encoding="UTF-8"?>
<svg version="1.1" xmlns="http://www.w3.org/2000/svg" width="200" height="202">
<path d="M0 0 C2.67813752 2.4150749 4.3043511 5.01052912 6.08203125 8.13671875 C6.97450562 9.69640381 6.97450562 9.69640381 7.88500977 11.28759766 C8.52108154 12.40956543 9.15715332 13.5315332 9.8125 14.6875 C10.8254655 16.46123375 11.84021083 18.23394202 12.85496521 20.00665283 C13.54885426 21.21918236 14.24217772 22.43203572 14.93495178 23.64520264 C18.27505185 29.49271854 21.66340951 35.31159321 25.0625 41.125 C25.630896 42.09832275 26.19929199 43.07164551 26.78491211 44.07446289 C28.5226674 47.04999723 30.26123837 50.02505362 32 53 C34.45914671 57.20785878 36.91759776 61.41612219 39.375 65.625 C40.25913574 67.13912476 40.25913574 67.13912476 41.16113281 68.68383789 C44.85291646 75.01328447 48.5043564 81.36287198 52.109375 87.7421875 C53.54327533 90.21299922 55.00774162 92.64522788 56.515625 95.0703125 C56.93932373 95.75665771 57.36302246 96.44300293 57.79956055 97.15014648 C58.62279315 98.47817201 59.45461116 99.80092544 60.29614258 101.11743164 C61.27499691 102.69951594 62.14710719 104.34660338 63 106 C62.505 107.485 62.505 107.485 62 109 C58.08372337 109.14522934 54.16813847 109.23404757 50.25 109.3125 C49.13882813 109.35439453 48.02765625 109.39628906 46.8828125 109.43945312 C45.27792969 109.46362305 45.27792969 109.46362305 43.640625 109.48828125 C42.16384277 109.52755737 42.16384277 109.52755737 40.65722656 109.56762695 C36.93247483 108.7719592 36.06122211 107.13531144 34 104 C32.84007616 102.12371688 31.72094797 100.22179887 30.63671875 98.30078125 C29.68913696 96.63088135 29.68913696 96.63088135 28.72241211 94.92724609 C28.39127411 94.33901062 28.06013611 93.75077515 27.71896362 93.14471436 C26.30504564 90.63313685 24.8814735 88.12707484 23.45863342 85.62054443 C22.72272457 84.32383464 21.98732624 83.02683499 21.25242615 81.72955322 C17.68041435 75.42562478 14.06207198 69.14883433 10.4375 62.875 C9.83510498 61.82642822 9.23270996 60.77785645 8.61206055 59.69750977 C5.70759035 54.64802167 2.78090966 49.61495071 -0.21873474 44.62149048 C-1.64546864 42.24311458 -3.05989676 39.85753395 -4.47335815 37.47125244 C-5.47621208 35.78988247 -6.49682214 34.1191435 -7.51782227 32.44873047 C-8.42165649 30.91949951 -8.42165649 30.91949951 -9.34375 29.359375 C-10.15102539 28.02084473 -10.15102539 28.02084473 -10.97460938 26.65527344 C-12.27318515 23.29258055 -11.94854921 21.4476778 -11 18 C-9.984375 15.77416992 -9.984375 15.77416992 -8.75 13.73046875 C-8.3065625 12.98732422 -7.863125 12.24417969 -7.40625 11.47851562 C-6.9421875 10.72248047 -6.478125 9.96644531 -6 9.1875 C-5.30390625 8.02444336 -5.30390625 8.02444336 -4.59375 6.83789062 C-1.20041209 1.20041209 -1.20041209 1.20041209 0 0 Z " fill="#50E9B0" transform="translate(118,40)"/>
<path d="M0 0 C-0.62648438 1.02480469 -1.25296875 2.04960938 -1.8984375 3.10546875 C-2.72415522 4.46602636 -3.54966511 5.82671012 -4.375 7.1875 C-4.7875 7.86103516 -5.2 8.53457031 -5.625 9.22851562 C-7.74751558 12.73751316 -9.62665045 16.11387353 -11 20 C-11.66 20 -12.32 20 -13 20 C-13.103125 20.721875 -13.20625 21.44375 -13.3125 22.1875 C-14.06733967 25.27548048 -15.29183251 27.33525871 -17 30 C-17.68096422 31.32608822 -18.35330586 32.65686601 -19 34 C-19.66 34 -20.32 34 -21 34 C-21.0825 34.680625 -21.165 35.36125 -21.25 36.0625 C-22.22332528 39.8746907 -23.95807455 42.64070329 -26 46 C-26.66 46 -27.32 46 -28 46 C-28.0825 46.68449219 -28.165 47.36898437 -28.25 48.07421875 C-29.19309123 51.75325693 -30.99461808 54.63664867 -33 57.8125 C-36.83348016 64.01328417 -40.45423331 70.29739038 -43.90429688 76.7199707 C-45.90785643 80.36791738 -47.75746113 83.37209005 -51 86 C-53.74902344 86.45410156 -53.74902344 86.45410156 -56.859375 86.390625 C-57.97441406 86.37773437 -59.08945312 86.36484375 -60.23828125 86.3515625 C-61.39714844 86.31804687 -62.55601563 86.28453125 -63.75 86.25 C-64.92433594 86.23195313 -66.09867188 86.21390625 -67.30859375 86.1953125 C-70.2065534 86.1481912 -73.10286418 86.08241305 -76 86 C-73.98716703 81.07484932 -71.6985948 76.5180096 -69 71.9375 C-66.51579477 67.69287114 -64.15472878 63.42392753 -62 59 C-61.34 59 -60.68 59 -60 59 C-59.89300781 58.26394531 -59.78601563 57.52789062 -59.67578125 56.76953125 C-58.9540238 53.81157731 -57.95868843 52.14025967 -56.1875 49.6875 C-54.30546701 46.97541944 -52.59298103 44.36164718 -51.1875 41.375 C-49.04592592 36.91774012 -46.48954602 32.72832024 -43.9284668 28.50488281 C-39.63730639 21.42564107 -35.44385318 14.28956367 -31.25415039 7.14990234 C-30.71653076 6.2367627 -30.17891113 5.32362305 -29.625 4.3828125 C-28.90183594 3.15135498 -28.90183594 3.15135498 -28.1640625 1.89501953 C-27 0 -27 0 -26 -1 C-22.41062093 -1.41114629 -18.79533661 -1.51699732 -15.1875 -1.6875 C-14.17623047 -1.74744141 -13.16496094 -1.80738281 -12.12304688 -1.86914062 C-11.14787109 -1.91619141 -10.17269531 -1.96324219 -9.16796875 -2.01171875 C-7.82641724 -2.08072388 -7.82641724 -2.08072388 -6.45776367 -2.15112305 C-3.81249018 -1.98847039 -2.25794334 -1.3454305 0 0 Z " fill="#96E958" transform="translate(92,63)"/>
<path d="M0 0 C3.99729369 1.21184922 5.29361331 3.81296603 7.19433594 7.35400391 C7.58395508 8.10343262 7.97357422 8.85286133 8.375 9.625 C9.26044413 11.27222101 10.14861077 12.91798059 11.0390625 14.5625 C11.51504883 15.44421875 11.99103516 16.3259375 12.48144531 17.234375 C15.14488871 22.08509636 17.95042293 26.8519761 20.75 31.625 C21.33128662 32.62047852 21.91257324 33.61595703 22.51147461 34.64160156 C25.66657115 40.04000662 28.84436128 45.42413601 32.04296875 50.796875 C32.69491211 51.89821777 33.34685547 52.99956055 34.01855469 54.13427734 C35.27940261 56.26360245 36.54679418 58.38906894 37.82128906 60.51025391 C38.38428711 61.46335449 38.94728516 62.41645508 39.52734375 63.3984375 C40.28132446 64.66179932 40.28132446 64.66179932 41.05053711 65.95068359 C41.36385986 66.62695801 41.67718262 67.30323242 42 68 C41.67 68.66 41.34 69.32 41 70 C37.06263877 70.08696177 33.12552372 70.14037835 29.1875 70.1875 C28.06794922 70.21263672 26.94839844 70.23777344 25.79492188 70.26367188 C24.72177734 70.27333984 23.64863281 70.28300781 22.54296875 70.29296875 C21.55321045 70.3086792 20.56345215 70.32438965 19.54370117 70.34057617 C17 70 17 70 15.3527832 68.8137207 C13.64650149 66.52605298 12.22579592 64.16832111 10.8125 61.6875 C9.89428467 60.08793457 9.89428467 60.08793457 8.95751953 58.45605469 C7.63733183 56.12522691 6.32043572 53.7928023 5.00732422 51.45800781 C4.3362462 50.26852217 3.66453308 49.07939462 2.9921875 47.890625 C2.65863251 47.30041565 2.32507751 46.7102063 1.98141479 46.10211182 C-0.09332922 42.47107373 -2.3061328 38.98872355 -4.6796875 35.546875 C-12.18336128 24.4599986 -12.18336128 24.4599986 -11.84863281 19.96923828 C-10.5278837 15.33048157 -7.89827468 11.79311078 -5 8 C-4.00634701 6.38381743 -3.02429713 4.76034053 -2.0625 3.125 C-1.381875 2.09375 -0.70125 1.0625 0 0 Z " fill="#6CE98E" transform="translate(95,79)"/>
<path d="M0 0 C1.32 0.33 2.64 0.66 4 1 C4 1.66 4 2.32 4 3 C4.5878125 3.27328125 5.175625 3.5465625 5.78125 3.828125 C7.93481556 4.9655716 9.6176844 6.21442675 11.5 7.75 C25.14716104 18.10563797 41.83442975 22.39268247 58.78125 20.7265625 C73.50622741 18.67281565 87.62835573 12.58524536 97.5625 1.28515625 C99 0 99 0 102 0 C103.65 3.3 105.3 6.6 107 10 C92.69768465 25.70450313 72.26291521 34.0876334 51.19140625 35.125 C32.07162133 35.01445439 11.48357777 27.42082598 -2.14453125 13.8671875 C-3.49800997 12.30133624 -4.76381853 10.66001512 -6 9 C-5.071875 7.88625 -5.071875 7.88625 -4.125 6.75 C-2.39562719 4.51198812 -1.13893339 2.56260013 0 0 Z " fill="#61E6A2" transform="translate(48,149)"/>
<path d="M0 0 C-3.50191063 11.42728732 -9.75563102 18.89905414 -20 25 C-20.99 25.33 -21.98 25.66 -23 26 C-23.309375 26.639375 -23.61875 27.27875 -23.9375 27.9375 C-25 30 -25 30 -27 30.9375 C-29.7711968 32.4096983 -29.87973238 34.11395739 -31 37 C-31.91354416 38.47345832 -32.85258216 39.9313241 -33.8125 41.375 C-39.36775828 50.57037861 -41.99552258 59.9132114 -42.75 70.5 C-43.44019537 79.85741507 -47.67549337 86.47338261 -53 94 C-56.19785045 91.23081583 -56.55203529 88.97448131 -56.87109375 84.765625 C-56.91363281 83.85296875 -56.95617187 82.9403125 -57 82 C-57.05285156 80.96359375 -57.10570313 79.9271875 -57.16015625 78.859375 C-57.69274922 58.5745297 -51.884075 40.7185715 -39 25 C-38.18789063 23.94425781 -38.18789063 23.94425781 -37.359375 22.8671875 C-29.44793207 13.07389649 -13.32837089 0 0 0 Z " fill="#AEE73D" transform="translate(77,30)"/>
<path d="M0 0 C18.08873081 3.09715974 33.45631605 16.17418481 43.89453125 30.6953125 C49.87647035 40.0844043 53.91111524 50.0375328 56 61 C56.3403125 62.7325 56.3403125 62.7325 56.6875 64.5 C57.55761723 74.245313 56.73640553 83.38775511 55 93 C49.8985955 91.29953183 48.04372373 85.71796389 45.72265625 81.10546875 C43.63341813 76.52868834 43.34837294 72.38529366 43.25 67.38671875 C42.03102071 50.87335868 32.91735724 35.56279137 20.59765625 24.92578125 C17.6734885 22.60493596 14.88950203 20.43981717 11.53515625 18.78125 C7.9801695 16.28344729 6.30881357 13.16832935 4.1875 9.4375 C3.57745117 8.40979492 3.57745117 8.40979492 2.95507812 7.36132812 C0 2.30044643 0 2.30044643 0 0 Z " fill="#41E6C8" transform="translate(120,30)"/>
<path d="M0 0 C1.32 0.33 2.64 0.66 4 1 C4 1.66 4 2.32 4 3 C4.5878125 3.27328125 5.175625 3.5465625 5.78125 3.828125 C7.93481556 4.9655716 9.6176844 6.21442675 11.5 7.75 C24.63610307 17.71784074 39.075293 20.301631 55 22 C54.67 22.66 54.34 23.32 54 24 C51.93359375 24.6328125 51.93359375 24.6328125 49.4375 25.125 C48.61121094 25.29257813 47.78492188 25.46015625 46.93359375 25.6328125 C46.29550781 25.75398438 45.65742187 25.87515625 45 26 C45 26.66 45 27.32 45 28 C46.65 28.33 48.3 28.66 50 29 C49.01 29.495 49.01 29.495 48 30 C48.495 31.485 48.495 31.485 49 33 C40.42790838 33.36795942 33.10754112 32.85672276 25 30 C24.04480469 29.67128906 23.08960937 29.34257812 22.10546875 29.00390625 C11.13744721 24.84957044 1.06222721 18.48356225 -6 9 C-5.071875 7.88625 -5.071875 7.88625 -4.125 6.75 C-2.39562719 4.51198812 -1.13893339 2.56260013 0 0 Z " fill="#89E86A" transform="translate(48,149)"/>
<path d="M0 0 C-0.64705807 3.56855649 -1.39290363 5.99074243 -3.4375 9 C-5.34965801 11.91797524 -6.85911643 14.68106597 -8 18 C-8.66 18 -9.32 18 -10 18 C-10.99 20.475 -10.99 20.475 -12 23 C-20.58 23 -29.16 23 -38 23 C-36.60807164 20.11429487 -35.19892312 17.235601 -33.703125 14.40234375 C-31.94469981 11.09203669 -31.94469981 11.09203669 -30.921875 7.75390625 C-25.8862258 -4.50056917 -11.07470779 -0.88523377 0 0 Z " fill="#7AE780" transform="translate(111,27)"/>
<path d="M0 0 C3.55734812 1.18578271 3.68103433 1.74185825 5.32421875 4.9453125 C7.10854936 8.32396627 8.94069355 11.64567449 10.89453125 14.9296875 C11.37470703 15.744375 11.85488281 16.5590625 12.34960938 17.3984375 C13.34018831 19.07541225 14.33511431 20.7498255 15.33398438 22.421875 C15.80771484 23.22882813 16.28144531 24.03578125 16.76953125 24.8671875 C17.19854736 25.59019043 17.62756348 26.31319336 18.06958008 27.05810547 C19 29 19 29 19 32 C14.95957327 32.26233625 10.92133519 32.42150491 6.875 32.5625 C5.73289062 32.63791016 4.59078125 32.71332031 3.4140625 32.79101562 C-4.78521702 33.00553166 -4.78521702 33.00553166 -8.21386719 30.16748047 C-10.75953269 26.71409758 -12.13366995 24.31956229 -11.6953125 19.9921875 C-11.13585938 19.00476563 -10.57640625 18.01734375 -10 17 C-9.62842773 16.32227539 -9.25685547 15.64455078 -8.87402344 14.94628906 C-7.58737282 12.64191481 -6.24126748 10.38297707 -4.875 8.125 C-4.40707031 7.34125 -3.93914062 6.5575 -3.45703125 5.75 C-2.30981892 3.83017528 -1.1573993 1.91369439 0 0 Z " fill="#86E86E" transform="translate(73,117)"/>
<path d="M0 0 C-3.50191063 11.42728732 -9.75563102 18.89905414 -20 25 C-20.99 25.33 -21.98 25.66 -23 26 C-23.309375 26.639375 -23.61875 27.27875 -23.9375 27.9375 C-25 30 -25 30 -27 30.9375 C-29.80656087 32.42848546 -29.90368627 34.03350401 -31 37 C-32.58820237 39.71759071 -34.28450357 42.36127839 -36 45 C-37 42 -37 42 -36.4375 39.0625 C-35.69772933 36.06501582 -35.69772933 36.06501582 -37.125 33.9375 C-37.558125 32.9784375 -37.558125 32.9784375 -38 32 C-36.50692877 28.77810946 -34.6244603 26.3745117 -32 24 C-35.00384054 24.6954344 -35.00384054 24.6954344 -38 26 C-38.81446109 28.00572641 -38.81446109 28.00572641 -39 30 C-39.66 30.33 -40.32 30.66 -41 31 C-41.495 32.485 -41.495 32.485 -42 34 C-43.485 34.495 -43.485 34.495 -45 35 C-39.61781896 19.49485669 -23.15098385 8.8615817 -9 2 C-2.78913738 0 -2.78913738 0 0 0 Z " fill="#96E85B" transform="translate(77,30)"/>
<path d="M0 0 C14.55189193 2.49158077 26.95103181 11.54520809 37 22 C38.28125 24.26953125 38.28125 24.26953125 39 26 C37.35 25.01 35.7 24.02 34 23 C33.71125 24.0725 33.4225 25.145 33.125 26.25 C32.26399541 29.1200153 31.37563712 31.38744547 30 34 C29.10861328 33.03900391 29.10861328 33.03900391 28.19921875 32.05859375 C23.87307048 27.54405955 19.96036422 23.79235047 14.4375 20.8125 C7.16965383 16.52633431 3.61678564 9.38538698 0 2 C0 1.34 0 0.68 0 0 Z " fill="#4EE5BA" transform="translate(120,30)"/>
<path d="M0 0 C3.21664105 1.76117743 3.93905783 2.80375712 5.046875 6.37109375 C5.30214753 7.72278273 5.53544435 9.07875313 5.75 10.4375 C5.87141357 11.15397705 5.99282715 11.8704541 6.11791992 12.60864258 C7.82443971 23.37256715 6.93143015 33.30815454 5 44 C2 43 2 43 0.4375 41.125 C-1.34558187 37.24873506 -1.88215235 33.5347623 -2.47265625 29.328125 C-2.64667969 28.55984375 -2.82070312 27.7915625 -3 27 C-3.66 26.67 -4.32 26.34 -5 26 C-4.98839844 25.07058594 -4.97679687 24.14117187 -4.96484375 23.18359375 C-4.81252548 15.43433085 -4.81252548 15.43433085 -5.625 7.75 C-5.74875 6.8425 -5.8725 5.935 -6 5 C-5.34 4.34 -4.68 3.68 -4 3 C-2.68 3 -1.36 3 0 3 C0 2.01 0 1.02 0 0 Z " fill="#39E6D1" transform="translate(170,79)"/>
<path d="M0 0 C1.65 3.3 3.3 6.6 5 10 C-8.77555762 24.52695167 -8.77555762 24.52695167 -18 25 C-18.33 24.34 -18.66 23.68 -19 23 C-18.525625 22.566875 -18.05125 22.13375 -17.5625 21.6875 C-15.76313043 19.97690387 -15.76313043 19.97690387 -15 17 C-15.99 16.67 -16.98 16.34 -18 16 C-17.67 15.01 -17.34 14.02 -17 13 C-16.01 13 -15.02 13 -14 13 C-13.93554688 12.43796875 -13.87109375 11.8759375 -13.8046875 11.296875 C-12.66526939 8.04455536 -10.68621604 6.52168727 -8.125 4.25 C-7.24070313 3.45078125 -6.35640625 2.6515625 -5.4453125 1.828125 C-3 0 -3 0 0 0 Z " fill="#52E8B1" transform="translate(150,149)"/>
<path d="M0 0 C3.28834617 2.79042625 5.12735689 6.47328176 7.1875 10.1875 C7.55552734 10.84169922 7.92355469 11.49589844 8.30273438 12.16992188 C9.2062466 13.77746961 10.1037241 15.38840651 11 17 C7.98509443 17 6.13135886 16.48047265 3.3125 15.5 C2.50425781 15.2215625 1.69601563 14.943125 0.86328125 14.65625 C-0.05904297 14.33140625 -0.05904297 14.33140625 -1 14 C-1.33 14.66 -1.66 15.32 -2 16 C-2.99 15.67 -3.98 15.34 -5 15 C-6.8129581 21.29203104 -7.08287429 24.75137714 -5 31 C-3.7934375 31.433125 -3.7934375 31.433125 -2.5625 31.875 C0 33 0 33 1.25 35 C2.32275041 39.29100165 2.67506241 43.59624061 3 48 C-1.08072195 44.25327923 -3.49184215 39.43372257 -6.25 34.6875 C-6.8171875 33.74970703 -7.384375 32.81191406 -7.96875 31.84570312 C-11.94495411 24.99833221 -11.94495411 24.99833221 -12.171875 20.8828125 C-10.48737277 16.73893703 -8.33698391 12.99483629 -6 9.1875 C-5.30390625 8.02444336 -5.30390625 8.02444336 -4.59375 6.83789062 C-1.20041209 1.20041209 -1.20041209 1.20041209 0 0 Z M-1 34 C-1 37 -1 37 -1 37 Z " fill="#6EE59B" transform="translate(118,40)"/>
<path d="M0 0 C1.32 0.33 2.64 0.66 4 1 C4 1.66 4 2.32 4 3 C4.556875 3.185625 5.11375 3.37125 5.6875 3.5625 C9.03134807 5.64110826 11.04807828 8.60813602 13 12 C13 12.66 13 13.32 13 14 C13.99 14 14.98 14 16 14 C15 17 15 17 13 18 C14.65 17.67 16.3 17.34 18 17 C18.66 18.32 19.32 19.64 20 21 C17.50590939 22.57035335 16.29556584 23.0274945 13.3125 22.75 C12.549375 22.5025 11.78625 22.255 11 22 C10.67 21.34 10.34 20.68 10 20 C9.319375 19.731875 8.63875 19.46375 7.9375 19.1875 C2.50697985 16.99218334 -2.93504213 14.17211641 -6 9 C-5.071875 7.88625 -5.071875 7.88625 -4.125 6.75 C-2.39562719 4.51198812 -1.13893339 2.56260013 0 0 Z " fill="#9EE45A" transform="translate(48,149)"/>
<path d="M0 0 C0.33 1.32 0.66 2.64 1 4 C-2 6 -2 6 -5 6 C-4.01 7.485 -4.01 7.485 -3 9 C-2.875 11.6875 -2.875 11.6875 -3 14 C-2.34 14.33 -1.68 14.66 -1 15 C-1.33 16.65 -1.66 18.3 -2 20 C-2.99 20.33 -3.98 20.66 -5 21 C-5.70105843 22.65249487 -6.35800351 24.32367583 -7 26 C-8.58975388 28.71666802 -10.284506 31.36128214 -12 34 C-13 31 -13 31 -12.4375 28.0625 C-11.69772933 25.06501582 -11.69772933 25.06501582 -13.125 22.9375 C-13.41375 22.298125 -13.7025 21.65875 -14 21 C-12.50692877 17.77810946 -10.6244603 15.3745117 -8 13 C-11.00384054 13.6954344 -11.00384054 13.6954344 -14 15 C-14.81446109 17.00572641 -14.81446109 17.00572641 -15 19 C-15.66 19.33 -16.32 19.66 -17 20 C-17.33 20.99 -17.66 21.98 -18 23 C-18.99 23.33 -19.98 23.66 -21 24 C-17.42250128 13.65879276 -8.59929298 6.26545564 0 0 Z " fill="#A2E551" transform="translate(53,41)"/>
<path d="M0 0 C1.27617188 0.02320313 2.55234375 0.04640625 3.8671875 0.0703125 C5.78917969 0.09738281 5.78917969 0.09738281 7.75 0.125 C9.23113281 0.15980469 9.23113281 0.15980469 10.7421875 0.1953125 C9.0921875 3.8253125 7.4421875 7.4553125 5.7421875 11.1953125 C-2.1778125 11.6903125 -2.1778125 11.6903125 -10.2578125 12.1953125 C-10.5878125 11.2053125 -10.9178125 10.2153125 -11.2578125 9.1953125 C-13.25797716 7.98649154 -13.25797716 7.98649154 -15.2578125 7.1953125 C-14.9278125 6.2053125 -14.5978125 5.2153125 -14.2578125 4.1953125 C-12.26171875 3.53515625 -12.26171875 3.53515625 -9.8203125 3.1328125 C-5.80088043 2.45538013 -3.92258177 0.23516677 0 0 Z " fill="#6DE88D" transform="translate(107.2578125,169.8046875)"/>
<path d="M0 0 C0.66 0.99 1.32 1.98 2 3 C0.35 6.3 -1.3 9.6 -3 13 C-2.34 13 -1.68 13 -1 13 C-1 14.98 -1 16.96 -1 19 C-2.65 18.67 -4.3 18.34 -6 18 C-7.485 20.475 -7.485 20.475 -9 23 C-7.68 24.32 -6.36 25.64 -5 27 C-5.66 27.99 -6.32 28.98 -7 30 C-5.2984375 29.7525 -5.2984375 29.7525 -3.5625 29.5 C0.97060294 28.92423916 5.43747238 28.90494734 10 29 C10 29.66 10 30.32 10 31 C7.33821779 32.3308911 5.31260604 32.11268993 2.3359375 32.09765625 C1.21445312 32.09443359 0.09296875 32.09121094 -1.0625 32.08789062 C-2.238125 32.07951172 -3.41375 32.07113281 -4.625 32.0625 C-5.80835938 32.05798828 -6.99171875 32.05347656 -8.2109375 32.04882812 C-11.14067507 32.03701467 -14.07031272 32.02054258 -17 32 C-14.98716703 27.07484932 -12.6985948 22.5180096 -10 17.9375 C-7.51579477 13.69287114 -5.15472878 9.42392753 -3 5 C-2.34 5 -1.68 5 -1 5 C-0.67 3.35 -0.34 1.7 0 0 Z " fill="#B2E25D" transform="translate(33,117)"/>
<path d="M0 0 C8.18701368 1.36700595 16.43887235 4.89690071 23 10 C23 10.33 23 10.66 23 11 C20.03 11.66 17.06 12.32 14 13 C14 14.65 14 16.3 14 18 C16.31 18.33 18.62 18.66 21 19 C20.34 19.33 19.68 19.66 19 20 C19.33 20.99 19.66 21.98 20 23 C18.65608877 22.35492261 17.32646156 21.6802367 16 21 C14.34484375 20.20722656 14.34484375 20.20722656 12.65625 19.3984375 C8.36420699 16.93464242 6.40491491 13.62801073 4.0625 9.375 C3.66482422 8.694375 3.26714844 8.01375 2.85742188 7.3125 C0 2.33537274 0 2.33537274 0 0 Z " fill="#5AE4AA" transform="translate(120,30)"/>
<path d="M0 0 C0.6084375 0.12117187 1.216875 0.24234375 1.84375 0.3671875 C10.18747645 1.96231167 18.56846838 3.00556591 27 4 C26.67 4.66 26.34 5.32 26 6 C23.93359375 6.6328125 23.93359375 6.6328125 21.4375 7.125 C20.61121094 7.29257813 19.78492187 7.46015625 18.93359375 7.6328125 C18.29550781 7.75398437 17.65742187 7.87515625 17 8 C17 8.66 17 9.32 17 10 C19.475 10.495 19.475 10.495 22 11 C21.01 11.495 21.01 11.495 20 12 C20.33 12.99 20.66 13.98 21 15 C16.0006759 15.31245776 12.50926718 14.69942629 7.89453125 12.75390625 C5.951597 11.9807386 4.0364504 11.46508734 2 11 C2.7425 9.88625 2.7425 9.88625 3.5 8.75 C5.31923475 5.93681812 5.31923475 5.93681812 5 2 C3.35 1.67 1.7 1.34 0 1 C0 0.67 0 0.34 0 0 Z " fill="#7CE977" transform="translate(76,167)"/>
<path d="M0 0 C4.56263526 4.10170187 7.19611755 9.82162405 10.25 15.0625 C10.91257813 16.17689453 11.57515625 17.29128906 12.2578125 18.43945312 C12.87914062 19.50228516 13.50046875 20.56511719 14.140625 21.66015625 C14.71329102 22.63605713 15.28595703 23.61195801 15.87597656 24.61743164 C16.2469043 25.4036792 16.61783203 26.18992676 17 27 C16.67 27.66 16.34 28.32 16 29 C12.04168191 29.02892857 8.08339083 29.04677427 4.125 29.0625 C2.43310547 29.07506836 2.43310547 29.07506836 0.70703125 29.08789062 C-0.36933594 29.09111328 -1.44570312 29.09433594 -2.5546875 29.09765625 C-3.54968262 29.10289307 -4.54467773 29.10812988 -5.56982422 29.11352539 C-8 29 -8 29 -10 28 C-10 27.34 -10 26.68 -10 26 C-4.06 26 1.88 26 8 26 C8.52174919 19.67082039 8.52174919 19.67082039 7 17 C6.34 17.66 5.68 18.32 5 19 C5 17.68 5 16.36 5 15 C4.01 14.67 3.02 14.34 2 14 C1.66468585 12.04200486 1.33180857 10.08359226 1 8.125 C0.814375 7.03445312 0.62875 5.94390625 0.4375 4.8203125 C0 2 0 2 0 0 Z " fill="#65E1A5" transform="translate(120,120)"/>
<path d="M0 0 C0.99 0.33 1.98 0.66 3 1 C3 1.66 3 2.32 3 3 C2.01 3.33 1.02 3.66 0 4 C-2.44929909 7.68631883 -2.35823523 11.36214293 -2.55859375 15.66015625 C-3.08114615 18.43014643 -3.95871596 19.14811345 -6 21 C-7.25414712 25.5342242 -7.18187972 26.63624057 -5 31 C1.27 30.34 7.54 29.68 14 29 C14 25.95799954 13.44513658 23.00467194 13 20 C19 27.2 19 27.2 19 32 C14.95957327 32.26233625 10.92133519 32.42150491 6.875 32.5625 C5.73289062 32.63791016 4.59078125 32.71332031 3.4140625 32.79101562 C-4.78521702 33.00553166 -4.78521702 33.00553166 -8.21386719 30.16748047 C-10.75953269 26.71409758 -12.13366995 24.31956229 -11.6953125 19.9921875 C-11.13585938 19.00476563 -10.57640625 18.01734375 -10 17 C-9.62842773 16.32227539 -9.25685547 15.64455078 -8.87402344 14.94628906 C-7.58737282 12.64191481 -6.24126748 10.38297707 -4.875 8.125 C-4.40707031 7.34125 -3.93914062 6.5575 -3.45703125 5.75 C-2.30981892 3.83017528 -1.1573993 1.91369439 0 0 Z " fill="#92E66B" transform="translate(73,117)"/>
<path d="M0 0 C3.12971397 2.87906588 5.13739079 5.68601769 7.125 9.4375 C7.62257812 10.36433594 8.12015625 11.29117188 8.6328125 12.24609375 C9.89714723 14.79282513 10.98789074 17.34441809 12 20 C9.45586018 22.54413982 2.4829618 21.23435466 -0.9375 21.25 C-2.62262695 21.2809375 -2.62262695 21.2809375 -4.34179688 21.3125 C-5.41365234 21.31765625 -6.48550781 21.3228125 -7.58984375 21.328125 C-8.57847412 21.3374707 -9.56710449 21.34681641 -10.58569336 21.35644531 C-11.78077515 21.18000488 -11.78077515 21.18000488 -13 21 C-13.66 20.01 -14.32 19.02 -15 18 C-7.74 18 -0.48 18 7 18 C6.67 17.34 6.34 16.68 6 16 C4.09821215 15.39938767 4.09821215 15.39938767 2 15 C1.01 14.67 0.02 14.34 -1 14 C-1 13.34 -1 12.68 -1 12 C-0.01 11.34 0.98 10.68 2 10 C1.67 9.38125 1.34 8.7625 1 8.125 C-0.36767313 5.21869461 0 3.32423643 0 0 Z " fill="#53E2CF" transform="translate(169,128)"/>
<path d="M0 0 C-0.62648438 1.02480469 -1.25296875 2.04960938 -1.8984375 3.10546875 C-2.72415522 4.46602636 -3.54966511 5.82671012 -4.375 7.1875 C-4.7875 7.86103516 -5.2 8.53457031 -5.625 9.22851562 C-7.74751558 12.73751316 -9.62665045 16.11387353 -11 20 C-11.66 20 -12.32 20 -13 20 C-12.52039103 17.76182479 -12.00361555 16.00642765 -10.875 14 C-9.80776772 11.56061193 -10.12177981 10.45901654 -11 8 C-10.01 7.67 -9.02 7.34 -8 7 C-8.66 6.401875 -9.32 5.80375 -10 5.1875 C-12 3 -12 3 -12 0 C-16.95 0.33 -21.9 0.66 -27 1 C-26.67 0.34 -26.34 -0.32 -26 -1 C-22.4175621 -1.22624982 -18.83414899 -1.42787181 -15.25 -1.625 C-14.23421875 -1.68945312 -13.2184375 -1.75390625 -12.171875 -1.8203125 C-11.1921875 -1.871875 -10.2125 -1.9234375 -9.203125 -1.9765625 C-7.85202637 -2.05511475 -7.85202637 -2.05511475 -6.47363281 -2.13525391 C-3.81083053 -1.98965654 -2.26927521 -1.35693395 0 0 Z " fill="#84E57F" transform="translate(92,63)"/>
<path d="M0 0 C2.8125 0.5625 2.8125 0.5625 6 2 C7.05352843 4.30965848 8.05719096 6.6429774 9 9 C11.06890419 10.04289755 11.06890419 10.04289755 13 10 C12.67 10.66 12.34 11.32 12 12 C12.99 12.33 13.98 12.66 15 13 C15 14.32 15 15.64 15 17 C14.01 17 13.02 17 12 17 C13.68807908 21.23084903 13.68807908 21.23084903 17 24 C17.59355614 26.64860427 17.74209269 29.29197322 18 32 C14.25517381 27.23463885 11.38280198 21.93852047 8.36499023 16.69970703 C7.3102215 14.87104975 6.24811378 13.04679071 5.18554688 11.22265625 C4.51517527 10.06275981 3.84523796 8.90261223 3.17578125 7.7421875 C2.56645752 6.6888623 1.95713379 5.63553711 1.3293457 4.55029297 C0 2 0 2 0 0 Z M2 2 C2.66 2.66 3.32 3.32 4 4 C4 3.34 4 2.68 4 2 C3.34 2 2.68 2 2 2 Z " fill="#5EE6A8" transform="translate(121,88)"/>
<path d="M0 0 C-1.3038101 4.40035907 -3.01273553 7.96040185 -5.5 11.8125 C-6.41265625 13.24529297 -6.41265625 13.24529297 -7.34375 14.70703125 C-9 17 -9 17 -11 18 C-11.6875 16.1875 -11.6875 16.1875 -12 14 C-10.6875 12.25 -10.6875 12.25 -9 11 C-8.34 11 -7.68 11 -7 11 C-7 10.01 -7 9.02 -7 8 C-7.66 8 -8.32 8 -9 8 C-9.33 7.34 -9.66 6.68 -10 6 C-10.60328125 6.37253906 -11.2065625 6.74507812 -11.828125 7.12890625 C-12.62734375 7.60199219 -13.4265625 8.07507812 -14.25 8.5625 C-15.03890625 9.03816406 -15.8278125 9.51382813 -16.640625 10.00390625 C-19.30844625 11.13022151 -20.34501768 11.0169313 -23 10 C-20.81782566 8.69856454 -18.62994758 7.40892573 -16.4375 6.125 C-15.82841797 5.76019531 -15.21933594 5.39539062 -14.59179688 5.01953125 C-10.06154095 2.38287436 -5.36977046 0 0 0 Z " fill="#97DB6A" transform="translate(77,30)"/>
<path d="M0 0 C1.921875 0.8046875 1.921875 0.8046875 4 2 C5.25 5.125 5.25 5.125 6 8 C5.34 7.67 4.68 7.34 4 7 C4 6.34 4 5.68 4 5 C3.34 5 2.68 5 2 5 C2 5.66 2 6.32 2 7 C1.01 7.495 1.01 7.495 0 8 C-0.45375 8.99 -0.9075 9.98 -1.375 11 C-3 14 -3 14 -5.1875 14.875 C-6.0846875 14.936875 -6.0846875 14.936875 -7 15 C-6.979375 15.94875 -6.95875 16.8975 -6.9375 17.875 C-7 21 -7 21 -8 23 C-7.71887936 25.00800456 -7.38932033 27.01014051 -7 29 C-9.25245881 26.31158141 -10.88213958 24.35358125 -12 21 C-11.01196289 18.73168945 -11.01196289 18.73168945 -9.47265625 16.11328125 C-8.92802734 15.17548828 -8.38339844 14.23769531 -7.82226562 13.27148438 C-7.24154297 12.29501953 -6.66082031 11.31855469 -6.0625 10.3125 C-5.48564453 9.32443359 -4.90878906 8.33636719 -4.31445312 7.31835938 C-2.88529486 4.87343573 -1.44689143 2.43445726 0 0 Z " fill="#7FE385" transform="translate(95,79)"/>
<path d="M0 0 C4.44907205 1.48302402 6.74579392 5.08285501 9 9 C9 9.66 9 10.32 9 11 C9.99 11 10.98 11 12 11 C11 14 11 14 9 15 C10.65 14.67 12.3 14.34 14 14 C14.66 15.32 15.32 16.64 16 18 C13.58978936 19.51754003 12.31664378 20.02316906 9.4375 19.8125 C6.77926294 18.92642098 5.60779597 18.2847627 4 16 C4 14.68 4 13.36 4 12 C3.34 11.01 2.68 10.02 2 9 C2.2784375 7.7625 2.2784375 7.7625 2.5625 6.5 C2.706875 5.675 2.85125 4.85 3 4 C1.64555699 2.22809091 1.64555699 2.22809091 0 1 C0 0.67 0 0.34 0 0 Z " fill="#93E75A" transform="translate(52,152)"/>
<path d="M0 0 C2.27549454 0.0661481 4.54995825 0.18500152 6.8203125 0.3515625 C7.985625 0.39667969 9.1509375 0.44179688 10.3515625 0.48828125 C13.2214273 0.60589866 16.08071074 0.76990422 18.9453125 0.9765625 C18.29825443 4.54511899 17.55240887 6.96730493 15.5078125 9.9765625 C13.59565449 12.89453774 12.08619607 15.65762847 10.9453125 18.9765625 C10.2853125 18.9765625 9.6253125 18.9765625 8.9453125 18.9765625 C8.6153125 19.6365625 8.2853125 20.2965625 7.9453125 20.9765625 C7.9453125 19.9865625 7.9453125 18.9965625 7.9453125 17.9765625 C8.6053125 17.9765625 9.2653125 17.9765625 9.9453125 17.9765625 C10.2753125 15.3365625 10.6053125 12.6965625 10.9453125 9.9765625 C11.9353125 9.9765625 12.9253125 9.9765625 13.9453125 9.9765625 C14.161875 8.8009375 14.161875 8.8009375 14.3828125 7.6015625 C14.9453125 4.9765625 14.9453125 4.9765625 15.9453125 2.9765625 C12.4871365 2.8897296 9.02923906 2.83622968 5.5703125 2.7890625 C4.58546875 2.76392578 3.600625 2.73878906 2.5859375 2.71289062 C1.64492187 2.70322266 0.70390625 2.69355469 -0.265625 2.68359375 C-1.13493652 2.6678833 -2.00424805 2.65217285 -2.89990234 2.63598633 C-3.966521 2.80457153 -3.966521 2.80457153 -5.0546875 2.9765625 C-7.04566596 5.96303019 -7.99593676 8.57343512 -9.0546875 11.9765625 C-9.7146875 11.9765625 -10.3746875 11.9765625 -11.0546875 11.9765625 C-11.0546875 12.9665625 -11.0546875 13.9565625 -11.0546875 14.9765625 C-12.0446875 15.3065625 -13.0346875 15.6365625 -14.0546875 15.9765625 C-13.39677557 14.30642056 -12.72803225 12.64054239 -12.0546875 10.9765625 C-11.70647949 10.10080566 -11.35827148 9.22504883 -10.99951172 8.32275391 C-8.28463746 2.70125627 -6.42863012 0.34080893 0 0 Z " fill="#89CF98" transform="translate(92.0546875,26.0234375)"/>
<path d="M0 0 C0.6084375 0.12117187 1.216875 0.24234375 1.84375 0.3671875 C10.18747645 1.96231167 18.56846838 3.00556591 27 4 C26 6 26 6 24.07421875 6.66796875 C23.28660156 6.83941406 22.49898437 7.01085937 21.6875 7.1875 C20.51767578 7.45626953 20.51767578 7.45626953 19.32421875 7.73046875 C16.89060936 8.01268564 15.33134178 7.65831944 13 7 C11.66216607 7.31478446 10.32796291 7.64587656 9 8 C8.34 7.67 7.68 7.34 7 7 C6.731875 6.175 6.46375 5.35 6.1875 4.5 C5.795625 3.675 5.40375 2.85 5 2 C2.45224694 1.10613836 2.45224694 1.10613836 0 1 C0 0.67 0 0.34 0 0 Z " fill="#83E485" transform="translate(76,167)"/>
<path d="M0 0 C3.7910119 1.44950455 7.3874638 3.15172566 11 5 C11 5.66 11 6.32 11 7 C12.918125 7.4640625 12.918125 7.4640625 14.875 7.9375 C17.10101675 8.47605244 18.94739999 8.9737 21 10 C21 10.66 21 11.32 21 12 C24.12432132 12.53342071 27.22383469 13.02487052 30.375 13.375 C34.56901544 14.09810611 38.05883675 15.40970606 42 17 C42 17.33 42 17.66 42 18 C27.65807124 17.93922912 12.06324271 11.76155676 1.703125 1.7890625 C1.14109375 1.19867188 0.5790625 0.60828125 0 0 Z " fill="#9ADE74" transform="translate(48,164)"/>
<path d="M0 0 C0.66 0 1.32 0 2 0 C6 6.75 6 6.75 6 9 C4 10.625 4 10.625 2 12 C1.67 11.34 1.34 10.68 1 10 C0.01 10.66 -0.98 11.32 -2 12 C-2.66 12 -3.32 12 -4 12 C-4.99 12.495 -4.99 12.495 -6 13 C-6.33 11.68 -6.66 10.36 -7 9 C-6.34 9 -5.68 9 -5 9 C-4.731875 8.030625 -4.46375 7.06125 -4.1875 6.0625 C-3.5996875 4.5465625 -3.5996875 4.5465625 -3 3 C-2.01 2.67 -1.02 2.34 0 2 C0 1.34 0 0.68 0 0 Z " fill="#74E983" transform="translate(97,84)"/>
<path d="M0 0 C0.625 1.8125 0.625 1.8125 1 4 C0.01 5.485 0.01 5.485 -1 7 C-1.66 7 -2.32 7 -3 7 C-3.04898438 7.69867188 -3.09796875 8.39734375 -3.1484375 9.1171875 C-3.22320312 10.02726562 -3.29796875 10.93734375 -3.375 11.875 C-3.44460937 12.77992187 -3.51421875 13.68484375 -3.5859375 14.6171875 C-4 17 -4 17 -6 19 C-6.309375 19.845625 -6.61875 20.69125 -6.9375 21.5625 C-7.288125 22.366875 -7.63875 23.17125 -8 24 C-8.99 24.33 -9.98 24.66 -11 25 C-11 24.34 -11 23.68 -11 23 C-11.66 23 -12.32 23 -13 23 C-11.44528471 18.72453294 -9.31698197 14.89640377 -7 11 C-6.48566406 10.12988281 -5.97132812 9.25976562 -5.44140625 8.36328125 C-1.15118838 1.15118838 -1.15118838 1.15118838 0 0 Z " fill="#A6E450" transform="translate(47,94)"/>
<path d="M0 0 C1.61949011 2.57213134 2.04408751 3.67669159 1.625 6.75 C1.41875 7.4925 1.2125 8.235 1 9 C-0.32 9.33 -1.64 9.66 -3 10 C-3.33 9.34 -3.66 8.68 -4 8 C-6.02463255 7.34786708 -6.02463255 7.34786708 -8 7 C-8.33 5.02 -8.66 3.04 -9 1 C-5.92677456 0.08941469 -3.19902639 -0.08886184 0 0 Z " fill="#4EE9AE" transform="translate(142,41)"/>
<path d="M0 0 C6 7.2 6 7.2 6 12 C1.89606988 12.11591764 -2.20744106 12.18715601 -6.3125 12.25 C-7.47974609 12.28351563 -8.64699219 12.31703125 -9.84960938 12.3515625 C-10.96787109 12.36445313 -12.08613281 12.37734375 -13.23828125 12.390625 C-14.7857605 12.4220459 -14.7857605 12.4220459 -16.36450195 12.45410156 C-19 12 -19 12 -20.86010742 9.97558594 C-21.23627197 9.32364258 -21.61243652 8.67169922 -22 8 C-21.67 7.34 -21.34 6.68 -21 6 C-19.5 7.375 -19.5 7.375 -18 9 C-18 9.66 -18 10.32 -18 11 C-11.73 10.34 -5.46 9.68 1 9 C1 5.95799954 0.44513658 3.00467194 0 0 Z " fill="#90DF8D" transform="translate(86,137)"/>
<path d="M0 0 C3.70254304 3.305842 5.95217819 6.5105445 8 11 C7.25 13.9375 7.25 13.9375 6 16 C3.61435923 15.42415568 1.33317216 14.77772405 -1 14 C-1 13.34 -1 12.68 -1 12 C-0.01 11.34 0.98 10.68 2 10 C1.67 9.38125 1.34 8.7625 1 8.125 C-0.36767313 5.21869461 0 3.32423643 0 0 Z " fill="#48DECA" transform="translate(169,128)"/>
<path d="M0 0 C3.66172475 0.62678171 6.8818995 1.64451846 10.3125 3.0625 C11.19550781 3.42472656 12.07851562 3.78695312 12.98828125 4.16015625 C13.65214844 4.43730469 14.31601563 4.71445312 15 5 C15 5.33 15 5.66 15 6 C12.69 6.33 10.38 6.66 8 7 C7.67 8.65 7.34 10.3 7 12 C0 3.55172414 0 3.55172414 0 0 Z " fill="#69DBA9" transform="translate(120,30)"/>
<path d="M0 0 C0.33 0.99 0.66 1.98 1 3 C-0.27126684 5.41102332 -1.57570511 7.6874917 -3 10 C-3.6802367 11.32646156 -4.35492261 12.65608877 -5 14 C-5.66 14 -6.32 14 -7 14 C-7.0825 14.680625 -7.165 15.36125 -7.25 16.0625 C-8.22332528 19.8746907 -9.95807455 22.64070329 -12 26 C-12.83139386 23.62761499 -13.14379438 22.40675537 -12.29296875 20 C-11.92816406 19.34 -11.56335938 18.68 -11.1875 18 C-10.83042969 17.34 -10.47335938 16.68 -10.10546875 16 C-9.74066406 15.34 -9.37585938 14.68 -9 14 C-8.32747044 12.66961426 -7.659975 11.33665823 -7 10 C-6.33333333 8.66666667 -5.66666667 7.33333333 -5 6 C-4.690625 5.29875 -4.38125 4.5975 -4.0625 3.875 C-3 2 -3 2 0 0 Z " fill="#9FE68F" transform="translate(78,83)"/>
<path d="M0 0 C0.33 1.32 0.66 2.64 1 4 C8.59 3.67 16.18 3.34 24 3 C24.33 3.66 24.66 4.32 25 5 C22.33821779 6.3308911 20.31260604 6.11268993 17.3359375 6.09765625 C16.21445312 6.09443359 15.09296875 6.09121094 13.9375 6.08789062 C12.761875 6.07951172 11.58625 6.07113281 10.375 6.0625 C9.19164062 6.05798828 8.00828125 6.05347656 6.7890625 6.04882812 C3.85932493 6.03701467 0.92968728 6.02054258 -2 6 C-1.34 4.02 -0.68 2.04 0 0 Z " fill="#B9E06A" transform="translate(18,143)"/>
<path d="M0 0 C3.28834617 2.79042625 5.12735689 6.47328176 7.1875 10.1875 C7.55552734 10.84169922 7.92355469 11.49589844 8.30273438 12.16992188 C9.2062466 13.77746961 10.1037241 15.38840651 11 17 C7.61976483 17 5.16531063 16.12544378 2 15 C2.66 14.67 3.32 14.34 4 14 C4.26218749 10.85375007 4.24754367 9.38162983 2.5 6.6875 C2.005 6.130625 1.51 5.57375 1 5 C-0.32 5.33 -1.64 5.66 -3 6 C-1.125 1.125 -1.125 1.125 0 0 Z " fill="#6BE1A5" transform="translate(118,40)"/>
<path d="M0 0 C0.99 1.32 1.98 2.64 3 4 C1.28915499 5.71084501 -0.94360093 5.13014689 -3.27734375 5.1328125 C-4.88319336 5.13474609 -4.88319336 5.13474609 -6.52148438 5.13671875 C-7.64876953 5.13285156 -8.77605469 5.12898437 -9.9375 5.125 C-11.06091797 5.12886719 -12.18433594 5.13273438 -13.34179688 5.13671875 C-14.41365234 5.13542969 -15.48550781 5.13414062 -16.58984375 5.1328125 C-18.07278931 5.13112061 -18.07278931 5.13112061 -19.58569336 5.12939453 C-22 5 -22 5 -24 4 C-24 3.34 -24 2.68 -24 2 C-16.08 2.33 -8.16 2.66 0 3 C0 2.01 0 1.02 0 0 Z " fill="#77DBAB" transform="translate(134,144)"/>
<path d="M0 0 C0.99 0.33 1.98 0.66 3 1 C3 1.99 3 2.98 3 4 C4.32 3.67 5.64 3.34 7 3 C7.8441938 6.97977076 8.44687265 10.97007218 9 15 C9.99 15.33 10.98 15.66 12 16 C12.33 17.98 12.66 19.96 13 22 C10.71464143 19.86979193 9.10448528 17.7462071 7.51953125 15.05859375 C7.07802734 14.31029297 6.63652344 13.56199219 6.18164062 12.79101562 C5.72982422 12.01435547 5.27800781 11.23769531 4.8125 10.4375 C4.11737305 9.26670898 4.11737305 9.26670898 3.40820312 8.07226562 C0 2.25472892 0 2.25472892 0 0 Z " fill="#78E781" transform="translate(88,108)"/>
<path d="M0 0 C0.33 0.66 0.66 1.32 1 2 C3.02463255 2.65213292 3.02463255 2.65213292 5 3 C-5.11238758 5.99417062 -16.55176428 8.6170154 -27 6 C-27 5.67 -27 5.34 -27 5 C-19.34916042 3.75088333 -11.72559014 3.90946574 -4 4 C-3.67 3.01 -3.34 2.02 -3 1 C-2.01 0.67 -1.02 0.34 0 0 Z " fill="#81E0A4" transform="translate(117,177)"/>
<path d="M0 0 C-1.3038101 4.40035907 -3.01273553 7.96040185 -5.5 11.8125 C-6.1084375 12.76769531 -6.716875 13.72289062 -7.34375 14.70703125 C-9 17 -9 17 -11 18 C-11.6875 16.1875 -11.6875 16.1875 -12 14 C-10.6875 12.25 -10.6875 12.25 -9 11 C-8.34 11 -7.68 11 -7 11 C-7 9.02 -7 7.04 -7 5 C-6.01 4.67 -5.02 4.34 -4 4 C-4 3.01 -4 2.02 -4 1 C-2 0 -2 0 0 0 Z " fill="#96E278" transform="translate(77,30)"/>
<path d="M0 0 C0.33 0 0.66 0 1 0 C1.06058594 0.83402344 1.12117188 1.66804688 1.18359375 2.52734375 C1.66828087 9.03706466 2.23091353 15.51769975 3 22 C3.66 22 4.32 22 5 22 C5 21.01 5 20.02 5 19 C5.66 19 6.32 19 7 19 C7.33 17.68 7.66 16.36 8 15 C9 18 9 18 8.00390625 20.04296875 C7.52824219 20.75066406 7.05257813 21.45835938 6.5625 22.1875 C6.08941406 22.90292969 5.61632812 23.61835937 5.12890625 24.35546875 C4.75636719 24.89816406 4.38382813 25.44085938 4 26 C0.81941728 23.24576885 0.46358859 21.01265019 0.1171875 16.828125 C-0.11521089 11.21957715 -0.0718435 5.61177595 0 0 Z " fill="#B5DF5B" transform="translate(20,98)"/>
<path d="M0 0 C0.66 1.98 1.32 3.96 2 6 C1.01 6.33 0.02 6.66 -1 7 C-1 6.34 -1 5.68 -1 5 C-5.81122847 6.52555966 -5.81122847 6.52555966 -9 10 C-11.5625 10.625 -11.5625 10.625 -14 11 C-12.83528482 9.83528482 -11.66968898 8.67143879 -10.5 7.51171875 C-9.46350877 6.46712993 -8.44353994 5.40597888 -7.4375 4.33203125 C-3.32155582 0 -3.32155582 0 0 0 Z " fill="#5FE1BE" transform="translate(150,149)"/>
<path d="M0 0 C2.57933891 2.57933891 3.97362706 4.43841328 5.6875 7.5625 C6.12449219 8.34753906 6.56148437 9.13257812 7.01171875 9.94140625 C8 12 8 12 8 14 C6 14 6 14 4.375 12.6875 C3 11 3 11 3 8 C1.02 8.99 1.02 8.99 -1 10 C-0.67 6.7 -0.34 3.4 0 0 Z " fill="#4DE2C7" transform="translate(161,114)"/>
<path d="M0 0 C0.99 0 1.98 0 3 0 C3.33 0.66 3.66 1.32 4 2 C4.99 2.33 5.98 2.66 7 3 C7.33 3.99 7.66 4.98 8 6 C7.01 7.485 7.01 7.485 6 9 C6.66 9 7.32 9 8 9 C9.60355101 12.50776784 10.22036864 15.14354879 10 19 C8.06088714 16.09133071 6.54812881 13.19359052 5 10.0625 C4.484375 9.02222656 3.96875 7.98195313 3.4375 6.91015625 C2.963125 5.94980469 2.48875 4.98945312 2 4 C1.33420952 2.66622893 0.66795088 1.33269045 0 0 Z " fill="#53DEC4" transform="translate(151,64)"/>
<path d="M0 0 C1.98 0 3.96 0 6 0 C6.5534764 2.07553648 7 3.84365964 7 6 C9.31 6.33 11.62 6.66 14 7 C13.01 7.495 13.01 7.495 12 8 C12.33 8.99 12.66 9.98 13 11 C11.65608877 10.35492261 10.32646156 9.6802367 9 9 C8.13181641 8.58041016 8.13181641 8.58041016 7.24609375 8.15234375 C3.97059867 6.46330975 2.3140726 5.60083454 0.5625 2.25 C0.376875 1.5075 0.19125 0.765 0 0 Z " fill="#63DEAC" transform="translate(127,42)"/>
<path d="M0 0 C2.375 0.1875 2.375 0.1875 5 1 C7.79010934 5.32466947 7.62989664 10.98412548 8 16 C3.62830555 11.82701893 2.72319092 8.82329979 2.34375 2.9609375 C2.17359375 1.99027344 2.17359375 1.99027344 2 1 C1.34 0.67 0.68 0.34 0 0 Z M4 2 C4 5 4 5 4 5 Z " fill="#6AE59E" transform="translate(113,72)"/>
<path d="M0 0 C0.33 0.99 0.66 1.98 1 3 C0.01 3.99 -0.98 4.98 -2 6 C-3.11375 5.5359375 -3.11375 5.5359375 -4.25 5.0625 C-6.50692176 4.1905075 -8.6450153 3.52332993 -11 3 C-9 0 -9 0 -7.1875 -0.75 C-4.59271 -1.04654743 -2.52136205 -0.63034051 0 0 Z " fill="#46E9B9" transform="translate(152,155)"/>
<path d="M0 0 C2.77770708 3.48746819 4.98481471 7.26133864 7.1875 11.125 C7.55552734 11.75792969 7.92355469 12.39085938 8.30273438 13.04296875 C11 17.75692834 11 17.75692834 11 20 C10.01 19.67 9.02 19.34 8 19 C7.29788106 17.34795544 6.63028587 15.68076231 6 14 C5.34 13.67 4.68 13.34 4 13 C2.96514123 10.68191636 1.9644586 8.34824702 1 6 C0.67 5.67 0.34 5.34 0 5 C-0.04063832 3.33382885 -0.042721 1.66611905 0 0 Z " fill="#69DDB0" transform="translate(129,58)"/>
<path d="M0 0 C0.99 0.99 1.98 1.98 3 3 C-0.30015998 7.13937592 -3.17324411 10.58662205 -8 13 C-7.67 11.68 -7.34 10.36 -7 9 C-6.01 9 -5.02 9 -4 9 C-4 8.34 -4 7.68 -4 7 C-4.99 6.67 -5.98 6.34 -7 6 C-6.67 5.34 -6.34 4.68 -6 4 C-5.01 4 -4.02 4 -3 4 C-2.01 3.34 -1.02 2.68 0 2 C0 1.34 0 0.68 0 0 Z " fill="#5AE2BA" transform="translate(152,155)"/>
<path d="M0 0 C1.98 0.99 3.96 1.98 6 3 C5.34 4.32 4.68 5.64 4 7 C1.69 7 -0.62 7 -3 7 C-3 3 -3 3 -1.5 1.25 C-1.005 0.8375 -0.51 0.425 0 0 Z " fill="#B1E835" transform="translate(22,140)"/>
<path d="M0 0 C0.66 0 1.32 0 2 0 C3.49821059 3.37097383 4 5.20442119 4 9 C2.02 9.99 2.02 9.99 0 11 C0 10.34 0 9.68 0 9 C-0.66 9 -1.32 9 -2 9 C-1.125 2.25 -1.125 2.25 0 0 Z " fill="#9FEA4C" transform="translate(44,101)"/>
<path d="M0 0 C2.35119399 3.52679099 2.21443452 5.02879485 2.125 9.1875 C2.10695312 10.27417969 2.08890625 11.36085938 2.0703125 12.48046875 C2.03550781 13.72763672 2.03550781 13.72763672 2 15 C2.99 15.33 3.98 15.66 5 16 C5.33 18.97 5.66 21.94 6 25 C1.55521367 19.34299921 0.6567827 15.32979041 0.375 8.25 C0.33632812 7.45722656 0.29765625 6.66445312 0.2578125 5.84765625 C0.163892 3.89880584 0.08087178 1.94943549 0 0 Z " fill="#55DBCD" transform="translate(163,90)"/>
<path d="M0 0 C3 1 3 1 4 3 C4.66 3.33 5.32 3.66 6 4 C4.02 6.97 4.02 6.97 2 10 C-0.0625 8.25 -0.0625 8.25 -2 6 C-1.78842197 3.60211564 -1.07207819 2.14415639 0 0 Z " fill="#77EA7C" transform="translate(90,102)"/>
<path d="M0 0 C0.33 1.32 0.66 2.64 1 4 C-2 6 -2 6 -5 6 C-5.226875 6.639375 -5.45375 7.27875 -5.6875 7.9375 C-7 10 -7 10 -9.625 10.75 C-10.40875 10.8325 -11.1925 10.915 -12 11 C-8.68542782 6.30435607 -4.63720719 3.27530896 0 0 Z " fill="#A6E36B" transform="translate(53,41)"/>
<path d="M0 0 C0.66 0 1.32 0 2 0 C2.28571429 8.57142857 2.28571429 8.57142857 0 12 C0 11.34 0 10.68 0 10 C-0.99 9.67 -1.98 9.34 -3 9 C-3 7.35 -3 5.7 -3 4 C-2.34 3.67 -1.68 3.34 -1 3 C-0.67 2.01 -0.34 1.02 0 0 Z " fill="#A0E84D" transform="translate(48,151)"/>
<path d="M0 0 C1.92888151 0.23688019 3.85758277 0.47535772 5.78515625 0.72265625 C7.6876173 0.96088329 9.59359268 1.17074207 11.5 1.375 C15.6285304 2.11223757 19.11469471 3.43224523 23 5 C23 5.33 23 5.66 23 6 C14.76557056 5.67580986 7.70210288 3.88996879 0 1 C0 0.67 0 0.34 0 0 Z " fill="#91DF85" transform="translate(67,176)"/>
<path d="M0 0 C1.31625194 2.63250388 0.74813658 3.80179056 0.0625 6.625 C-0.13214844 7.44226563 -0.32679687 8.25953125 -0.52734375 9.1015625 C-0.76130859 10.04128906 -0.76130859 10.04128906 -1 11 C-1.66 11 -2.32 11 -3 11 C-3.33 12.32 -3.66 13.64 -4 15 C-4.66 14.67 -5.32 14.34 -6 14 C-4.45941767 8.98491285 -2.97068161 4.3852919 0 0 Z " fill="#B3DF4F" transform="translate(31,65)"/>
<path d="M0 0 C0.99 0.33 1.98 0.66 3 1 C1.95125002 3.62187494 1.35068687 4.79371361 -1.125 6.25 C-1.74375 6.4975 -2.3625 6.745 -3 7 C-3 6.01 -3 5.02 -3 4 C-2.34 3.67 -1.68 3.34 -1 3 C-0.67 2.01 -0.34 1.02 0 0 Z M-5 7 C-4.34 7.33 -3.68 7.66 -3 8 C-3.33 9.32 -3.66 10.64 -4 12 C-4.66 12 -5.32 12 -6 12 C-6 12.99 -6 13.98 -6 15 C-6.66 15 -7.32 15 -8 15 C-7.74438677 12.6568787 -7.40729228 10.32156597 -7 8 C-6.34 7.67 -5.68 7.34 -5 7 Z " fill="#80E870" transform="translate(84,34)"/>
<path d="M0 0 C0.64453125 1.75390625 0.64453125 1.75390625 1 4 C0.07421875 5.96484375 0.07421875 5.96484375 -1.3125 7.9375 C-3.29361135 10.88165159 -4.83860961 13.62140977 -6 17 C-6.66 17 -7.32 17 -8 17 C-8.33 17.66 -8.66 18.32 -9 19 C-9 18.01 -9 17.02 -9 16 C-8.34 16 -7.68 16 -7 16 C-6.67 13.36 -6.34 10.72 -6 8 C-5.01 8 -4.02 8 -3 8 C-2.814375 6.8553125 -2.814375 6.8553125 -2.625 5.6875 C-2 3 -2 3 0 0 Z " fill="#81E09E" transform="translate(109,28)"/>
<path d="M0 0 C2.61724095 2.36797991 4.32861729 4.89600354 6 8 C6 8.66 6 9.32 6 10 C4.35 9.67 2.7 9.34 1 9 C1 8.34 1 7.68 1 7 C0.34 7 -0.32 7 -1 7 C-0.67 4.69 -0.34 2.38 0 0 Z " fill="#52E1C1" transform="translate(154,102)"/>
<path d="M0 0 C0.33 0.66 0.66 1.32 1 2 C1.66 2 2.32 2 3 2 C3 3.98 3 5.96 3 8 C0.5625 7.625 0.5625 7.625 -2 7 C-2.33 6.34 -2.66 5.68 -3 5 C-1.5625 2.375 -1.5625 2.375 0 0 Z " fill="#ABE83F" transform="translate(29,128)"/>
<path d="M0 0 C-0.99 0.99 -1.98 1.98 -3 3 C-3 2.01 -3 1.02 -3 0 C-10.92 0.33 -18.84 0.66 -27 1 C-26.67 0.34 -26.34 -0.32 -26 -1 C-22.4175621 -1.22624982 -18.83414899 -1.42787181 -15.25 -1.625 C-14.23421875 -1.68945312 -13.2184375 -1.75390625 -12.171875 -1.8203125 C-11.1921875 -1.871875 -10.2125 -1.9234375 -9.203125 -1.9765625 C-7.85202637 -2.05511475 -7.85202637 -2.05511475 -6.47363281 -2.13525391 C-3.81083053 -1.98965654 -2.26927521 -1.35693395 0 0 Z " fill="#94DF8D" transform="translate(92,63)"/>
<path d="M0 0 C2.64 0 5.28 0 8 0 C7.67 1.65 7.34 3.3 7 5 C5.35 5.33 3.7 5.66 2 6 C0 3 0 3 0 0 Z " fill="#7DEB73" transform="translate(80,63)"/>
<path d="M0 0 C0 0.66 0 1.32 0 2 C-0.99 2.33 -1.98 2.66 -3 3 C-3 3.66 -3 4.32 -3 5 C-2.34 5.33 -1.68 5.66 -1 6 C-1.33 7.32 -1.66 8.64 -2 10 C-2.66 10 -3.32 10 -4 10 C-4.33 8.68 -4.66 7.36 -5 6 C-6.98 6 -8.96 6 -11 6 C-3.28571429 0 -3.28571429 0 0 0 Z " fill="#63E0AC" transform="translate(136,160)"/>
<path d="M0 0 C0.625 1.8125 0.625 1.8125 1 4 C0.01 5.485 0.01 5.485 -1 7 C-1.66 7 -2.32 7 -3 7 C-3.33 8.98 -3.66 10.96 -4 13 C-4.99 13 -5.98 13 -7 13 C-5.35821735 8.22390502 -2.73453298 4.20617096 0 0 Z " fill="#ACDD6E" transform="translate(47,94)"/>
<path d="M0 0 C1.34655021 4.03965064 0.56308395 6.09229013 -1 10 C-3.625 11.4375 -3.625 11.4375 -6 12 C-4.43358249 7.69235185 -2.31663844 3.93828536 0 0 Z " fill="#A1E267" transform="translate(54,82)"/>
<path d="M0 0 C2.96783129 1.45668783 5.86415313 3.01232086 8.75 4.625 C9.94882813 5.29402344 9.94882813 5.29402344 11.171875 5.9765625 C11.77515625 6.31429687 12.3784375 6.65203125 13 7 C8.9258302 8.3580566 6.93591794 7.61653773 3 6 C1.0625 2.875 1.0625 2.875 0 0 Z " fill="#94D971" transform="translate(58,157)"/>
<path d="M0 0 C1.65 0 3.3 0 5 0 C3.15490111 3.77805964 1.2096601 7.42245507 -1 11 C-2.31625194 8.36749612 -1.74813658 7.19820944 -1.0625 4.375 C-0.86785156 3.55773437 -0.67320313 2.74046875 -0.47265625 1.8984375 C-0.23869141 0.95871094 -0.23869141 0.95871094 0 0 Z " fill="#9ADF6D" transform="translate(52,123)"/>
<path d="M0 0 C1.1796875 1.609375 1.1796875 1.609375 2 4 C0.8828125 7.015625 0.8828125 7.015625 -0.875 10.25 C-1.44992188 11.32765625 -2.02484375 12.4053125 -2.6171875 13.515625 C-3.07351562 14.33546875 -3.52984375 15.1553125 -4 16 C-4.84291332 13.60996728 -5.15384404 12.4145692 -4.2578125 10 C-3.88398437 9.34 -3.51015625 8.68 -3.125 8 C-1.63630494 5.33492353 -0.62844826 2.99515767 0 0 Z " fill="#98DB7B" transform="translate(70,93)"/>
<path d="M0 0 C2.61500768 2.36595933 4.38999603 4.86049226 6 8 C5.67 8.66 5.34 9.32 5 10 C3.68 8.35 2.36 6.7 1 5 C-0.32 5.33 -1.64 5.66 -3 6 C-1.125 1.125 -1.125 1.125 0 0 Z " fill="#73DBA8" transform="translate(118,40)"/>
<path d="M0 0 C-0.33 0.66 -0.66 1.32 -1 2 C-1.99 2 -2.98 2 -4 2 C-3.67 2.99 -3.34 3.98 -3 5 C-3.99 5 -4.98 5 -6 5 C-7.33333333 3.66666667 -8.66666667 2.33333333 -10 1 C-6.42181037 -1.33958553 -4.07775191 -0.9267618 0 0 Z " fill="#89DB6F" transform="translate(74,33)"/>
<path d="M0 0 C0.99 0 1.98 0 3 0 C3 0.66 3 1.32 3 2 C3.99 2.33 4.98 2.66 6 3 C6 3.99 6 4.98 6 6 C4.02 6 2.04 6 0 6 C0 4.02 0 2.04 0 0 Z " fill="#59E9A6" transform="translate(128,141)"/>
<path d="M0 0 C0 3 0 3 -1.4375 4.5 C-1.953125 4.995 -2.46875 5.49 -3 6 C-3.33 6.99 -3.66 7.98 -4 9 C-4.99 8.67 -5.98 8.34 -7 8 C-6.67 7.01 -6.34 6.02 -6 5 C-6.33 4.01 -6.66 3.02 -7 2 C-2.25 0 -2.25 0 0 0 Z " fill="#A0E94A" transform="translate(47,136)"/>
<path d="M0 0 C0.66 0 1.32 0 2 0 C1.34 6.93 0.68 13.86 0 21 C-0.33 21 -0.66 21 -1 21 C-1.02888146 17.68751813 -1.04675799 14.37506833 -1.0625 11.0625 C-1.07087891 10.11697266 -1.07925781 9.17144531 -1.08789062 8.19726562 C-1.09111328 7.29814453 -1.09433594 6.39902344 -1.09765625 5.47265625 C-1.10289307 4.64000244 -1.10812988 3.80734863 -1.11352539 2.94946289 C-1 1 -1 1 0 0 Z " fill="#ADD666" transform="translate(33,88)"/>
<path d="M0 0 C0.33 1.32 0.66 2.64 1 4 C0.34 4 -0.32 4 -1 4 C-1.12375 4.639375 -1.2475 5.27875 -1.375 5.9375 C-1.58125 6.618125 -1.7875 7.29875 -2 8 C-2.99 8.495 -2.99 8.495 -4 9 C-4.33 9.99 -4.66 10.98 -5 12 C-5.99 12.33 -6.98 12.66 -8 13 C-6.40956621 7.91061189 -3.2553049 4.12543357 0 0 Z " fill="#AEDD60" transform="translate(40,52)"/>
<path d="M0 0 C3.21524305 1.40844718 5.32183868 3.10344786 7.75 5.625 C8.67039063 6.57246094 8.67039063 6.57246094 9.609375 7.5390625 C10.29773438 8.26222656 10.29773438 8.26222656 11 9 C10.67 9.66 10.34 10.32 10 11 C9.38125 10.505 8.7625 10.01 8.125 9.5 C6.16119096 7.80777227 6.16119096 7.80777227 4 8 C3.896875 7.38125 3.79375 6.7625 3.6875 6.125 C3.12474627 3.63473516 3.12474627 3.63473516 0 2 C0 1.34 0 0.68 0 0 Z " fill="#59D7BD" transform="translate(148,45)"/>
<path d="M0 0 C0.66 0 1.32 0 2 0 C1.34 2.31 0.68 4.62 0 7 C-0.99 6.67 -1.98 6.34 -3 6 C-2.01 4.02 -1.02 2.04 0 0 Z M-4 7 C-3.67 7 -3.34 7 -3 7 C-3 8.98 -3 10.96 -3 13 C-3.99 13.33 -4.98 13.66 -6 14 C-6 13.01 -6 12.02 -6 11 C-5.34 11 -4.68 11 -4 11 C-4 9.68 -4 8.36 -4 7 Z " fill="#6AEB88" transform="translate(106,29)"/>
<path d="M0 0 C-0.66 1.65 -1.32 3.3 -2 5 C-4.38564077 4.42415568 -6.66682784 3.77772405 -9 3 C-9 2.34 -9 1.68 -9 1 C-5.8035914 -0.06546953 -3.34252724 -0.07427838 0 0 Z " fill="#3CE9D3" transform="translate(177,139)"/>
<path d="M0 0 C0.33 0 0.66 0 1 0 C1.08097324 2.27024968 1.13917704 4.54132075 1.1875 6.8125 C1.22230469 8.07707031 1.25710937 9.34164062 1.29296875 10.64453125 C1 14 1 14 -0.51171875 15.94921875 C-1.00285156 16.29597656 -1.49398438 16.64273438 -2 17 C-2.33 15.35 -2.66 13.7 -3 12 C-2.34 11.67 -1.68 11.34 -1 11 C-0.5316735 8.41394668 -0.5316735 8.41394668 -0.375 5.4375 C-0.30023437 4.42558594 -0.22546875 3.41367188 -0.1484375 2.37109375 C-0.09945313 1.58863281 -0.05046875 0.80617188 0 0 Z " fill="#B0E24F" transform="translate(31,97)"/>
<path d="M0 0 C1 3 1 3 -0.1796875 5.48046875 C-1.01886719 6.82044922 -1.01886719 6.82044922 -1.875 8.1875 C-2.42929687 9.08855469 -2.98359375 9.98960938 -3.5546875 10.91796875 C-4.03164063 11.60503906 -4.50859375 12.29210937 -5 13 C-5.33 13 -5.66 13 -6 13 C-6.1875 10.6875 -6.1875 10.6875 -6 8 C-4.5625 6.375 -4.5625 6.375 -3 5 C-2.67 4.01 -2.34 3.02 -2 2 C-1.34 2 -0.68 2 0 2 C0 1.34 0 0.68 0 0 Z " fill="#9FE07B" transform="translate(63,109)"/>
<path d="M0 0 C1.98 0.99 1.98 0.99 4 2 C4 2.66 4 3.32 4 4 C4.7734375 5.4540625 4.7734375 5.4540625 5.5625 6.9375 C7 10 7 10 6 13 C4.99491199 11.21118264 3.99607264 9.41885304 3 7.625 C2.1646875 6.12839844 2.1646875 6.12839844 1.3125 4.6015625 C0 2 0 2 0 0 Z " fill="#72DDAC" transform="translate(121,88)"/>
<path d="M0 0 C1.953125 0.8359375 1.953125 0.8359375 4 2 C4.75 4.625 4.75 4.625 5 7 C5.66 7 6.32 7 7 7 C7 8.65 7 10.3 7 12 C3.95950199 8.35140239 2.03481238 4.2555467 0 0 Z " fill="#61DEBC" transform="translate(143,127)"/>
<path d="M0 0 C3.09592835 3.5087188 4.74194623 6.49197399 6 11 C5.34 11 4.68 11 4 11 C4 10.34 4 9.68 4 9 C3.01 8.67 2.02 8.34 1 8 C0.67 5.36 0.34 2.72 0 0 Z " fill="#74DCA7" transform="translate(114,109)"/>
<path d="M0 0 C2.09749995 2.35968744 2.96905704 3.54616994 3.1875 6.75 C3.125625 7.4925 3.06375 8.235 3 9 C1.68 8.67 0.36 8.34 -1 8 C-0.67 5.36 -0.34 2.72 0 0 Z " fill="#84E47E" transform="translate(83,132)"/>
<path d="M0 0 C0.99 0.33 1.98 0.66 3 1 C3 1.66 3 2.32 3 3 C2.01 3.33 1.02 3.66 0 4 C-1.44870619 5.85804317 -1.44870619 5.85804317 -2.6875 8.0625 C-3.12449219 8.79597656 -3.56148438 9.52945313 -4.01171875 10.28515625 C-4.50091797 11.13400391 -4.50091797 11.13400391 -5 12 C-5 8.55639368 -4.20408468 7.25204608 -2.5 4.3125 C-2.0359375 3.50425781 -1.571875 2.69601563 -1.09375 1.86328125 C-0.7328125 1.24839844 -0.371875 0.63351563 0 0 Z " fill="#99D688" transform="translate(73,117)"/>
<path d="M0 0 C2.1519437 3.22791555 2.20086443 4.28400809 2 8 C1.01 7.67 0.02 7.34 -1 7 C-2.1875 4.4375 -2.1875 4.4375 -3 2 C-2.01 2 -1.02 2 0 2 C0 1.34 0 0.68 0 0 Z " fill="#4ADAD0" transform="translate(173,115)"/>
<path d="M0 0 C2 0 2 0 4.0625 1.5 C6.77228487 4.99649661 6.70820498 7.62307465 7 12 C3.95950199 8.35140239 2.03481238 4.2555467 0 0 Z " fill="#6CDCB5" transform="translate(132,108)"/>
<path d="M0 0 C1.32 0.66 2.64 1.32 4 2 C4 2.66 4 3.32 4 4 C3.360625 4.12375 2.72125 4.2475 2.0625 4.375 C1.0415625 4.684375 1.0415625 4.684375 0 5 C-0.33 5.66 -0.66 6.32 -1 7 C-1.66 7 -2.32 7 -3 7 C-1.125 1.125 -1.125 1.125 0 0 Z " fill="#87DC94" transform="translate(95,79)"/>
<path d="M0 0 C0.66 0 1.32 0 2 0 C2.103125 0.639375 2.20625 1.27875 2.3125 1.9375 C2.539375 2.618125 2.76625 3.29875 3 4 C3.99 4.33 4.98 4.66 6 5 C6.33 6.98 6.66 8.96 7 11 C4.59424393 8.81482901 3.20464419 6.74080329 1.8125 3.8125 C1.46832031 3.09707031 1.12414062 2.38164063 0.76953125 1.64453125 C0.51558594 1.10183594 0.26164062 0.55914062 0 0 Z " fill="#8EE19F" transform="translate(94,119)"/>
<path d="M0 0 C0.99 0.33 1.98 0.66 3 1 C2.01 2.98 1.02 4.96 0 7 C-0.99 6.67 -1.98 6.34 -3 6 C-2.01 4.02 -1.02 2.04 0 0 Z " fill="#61E995" transform="translate(117,171)"/>
<path d="M0 0 C1.32 1.32 2.64 2.64 4 4 C3.01 4.99 2.02 5.98 1 7 C0.67 6.34 0.34 5.68 0 5 C-0.66 5 -1.32 5 -2 5 C-1.34 3.35 -0.68 1.7 0 0 Z " fill="#B6EA62" transform="translate(36,112)"/>
<path d="M0 0 C0.66 0 1.32 0 2 0 C0.66666667 3.33333333 -0.66666667 6.66666667 -2 10 C-2.66 10 -3.32 10 -4 10 C-3.29445932 6.33118845 -1.72264494 3.29549466 0 0 Z " fill="#8CDC83" transform="translate(83,73)"/>
<path d="M0 0 C0.66 0 1.32 0 2 0 C1.67 1.65 1.34 3.3 1 5 C0.34 5 -0.32 5 -1 5 C-1 5.99 -1 6.98 -1 8 C-1.99 8.33 -2.98 8.66 -4 9 C-2.80100302 5.9168649 -1.52299523 2.93720508 0 0 Z " fill="#90DF88" transform="translate(82,33)"/>
<path d="M0 0 C1 3 1 3 0 6 C0.66 6 1.32 6 2 6 C2.33 7.98 2.66 9.96 3 12 C0.74754119 9.31158141 -0.88213958 7.35358125 -2 4 C-1.0625 1.8125 -1.0625 1.8125 0 0 Z " fill="#90DB90" transform="translate(85,96)"/>
<path d="M0 0 C0 1.32 0 2.64 0 4 C-2 5.75 -2 5.75 -4 7 C-4.33 5.02 -4.66 3.04 -5 1 C-3 0 -3 0 0 0 Z " fill="#57EAA5" transform="translate(132,166)"/>
<path d="M0 0 C0.99 0.99 1.98 1.98 3 3 C1.35 4.65 -0.3 6.3 -2 8 C-2.33 6.68 -2.66 5.36 -3 4 C-2.01 3.34 -1.02 2.68 0 2 C0 1.34 0 0.68 0 0 Z " fill="#5FDDC1" transform="translate(152,155)"/>
<path d="M0 0 C3.48331435 3.01887244 4.79157144 5.56909529 6 10 C4.5 8.625 4.5 8.625 3 7 C3 6.34 3 5.68 3 5 C2.01 5 1.02 5 0 5 C0 3.35 0 1.7 0 0 Z " fill="#5FDBBF" transform="translate(147,90)"/>
<path d="M0 0 C0.99928333 2.698065 1.03624754 3.88010429 0.1875 6.6875 C-1 9 -1 9 -3 10 C-3.36629408 5.72656908 -2.40814077 3.51187196 0 0 Z " fill="#68E98D" transform="translate(111,55)"/>
<path d="M0 0 C3.375 -0.125 3.375 -0.125 7 0 C7.66 0.66 8.32 1.32 9 2 C8.34 2 7.68 2 7 2 C7.33 2.99 7.66 3.98 8 5 C5.04590299 3.62845496 2.55991624 2.01136276 0 0 Z " fill="#67DDB8" transform="translate(132,48)"/>
<path d="M0 0 C2.61500768 2.36595933 4.38999603 4.86049226 6 8 C5.67 8.66 5.34 9.32 5 10 C0 4.5 0 4.5 0 0 Z " fill="#72D9A4" transform="translate(120,120)"/>
<path d="M0 0 C2.31 0 4.62 0 7 0 C4.06171403 2.50298434 1.82097239 3.46930939 -2 4 C-1.34 3.67 -0.68 3.34 0 3 C0 2.01 0 1.02 0 0 Z " fill="#6ADBAD" transform="translate(129,173)"/>
<path d="M0 0 C0.99 0.33 1.98 0.66 3 1 C3.94921875 3.06640625 3.94921875 3.06640625 4.6875 5.5625 C4.93886719 6.38878906 5.19023438 7.21507813 5.44921875 8.06640625 C5.63097656 8.70449219 5.81273438 9.34257813 6 10 C3.44765282 7.54774487 1.68581342 5.13079636 0 2 C0 1.34 0 0.68 0 0 Z " fill="#90E195" transform="translate(88,108)"/>
<path d="M0 0 C4.42857143 5.14285714 4.42857143 5.14285714 5 9 C4.34 9 3.68 9 3 9 C0.56839395 5.63316085 0 4.26649636 0 0 Z " fill="#7FD69D" transform="translate(106,95)"/>
<path d="M0 0 C0.6875 1.6875 0.6875 1.6875 1 4 C-0.4375 6.75 -0.4375 6.75 -2 9 C-2.6875 7.3125 -2.6875 7.3125 -3 5 C-1.5625 2.25 -1.5625 2.25 0 0 Z " fill="#79E09E" transform="translate(111,51)"/>
<path d="M0 0 C0.99 0.33 1.98 0.66 3 1 C3 1.99 3 2.98 3 4 C2.34 4 1.68 4 1 4 C1 4.99 1 5.98 1 7 C0.34 7 -0.32 7 -1 7 C-0.67 4.69 -0.34 2.38 0 0 Z " fill="#8CE677" transform="translate(77,42)"/>
<path d="M0 0 C-0.60183749 2.02045442 -1.27306096 4.02111039 -2 6 C-2.99 6.495 -2.99 6.495 -4 7 C-4.33 5.35 -4.66 3.7 -5 2 C-2 0 -2 0 0 0 Z " fill="#97D387" transform="translate(77,30)"/>
</svg>
