<?xml version="1.0" encoding="UTF-8"?>
<svg version="1.1" xmlns="http://www.w3.org/2000/svg" width="200" height="202">
<path d="M0 0 C66 0 132 0 200 0 C200 66.66 200 133.32 200 202 C134 202 68 202 0 202 C0 135.34 0 68.68 0 0 Z " fill="#1C2B39" transform="translate(0,0)"/>
<path d="M0 0 C2.98885268 2.77737346 5.01050908 5.43928991 6.9609375 9.015625 C7.50741943 10.0068335 8.05390137 10.99804199 8.61694336 12.01928711 C9.19710205 13.08542236 9.77726074 14.15155762 10.375 15.25 C11.63231524 17.52833766 12.89147654 19.80565738 14.15234375 22.08203125 C14.47278152 22.66155045 14.7932193 23.24106964 15.12336731 23.83815002 C18.30974153 29.5881411 21.610649 35.26798944 24.9375 40.9375 C26.10428696 42.92831492 27.2709525 44.919201 28.4375 46.91015625 C29.31341797 48.40506592 29.31341797 48.40506592 30.20703125 49.93017578 C33.92902785 56.30277726 37.60973277 62.69927851 41.29101562 69.09545898 C44.25034287 74.23670906 47.21452493 79.37485103 50.20201111 84.49978638 C51.61028284 86.91612255 53.01545573 89.33425405 54.42044067 91.75250244 C55.42044702 93.4706998 56.42490775 95.18630219 57.42944336 96.90185547 C58.02893799 97.93455566 58.62843262 98.96725586 59.24609375 100.03125 C59.77904053 100.94455078 60.3119873 101.85785156 60.86108398 102.79882812 C62 105 62 105 62 107 C53.75 107 45.5 107 37 107 C35.14375 103.7 33.2875 100.4 31.375 97 C26.15236055 87.7408709 20.83696915 78.54025248 15.46240234 69.36865234 C10.07237662 60.15739543 4.77787598 50.89294884 -0.49536133 41.61450195 C-1.12595459 40.50679443 -1.75654785 39.39908691 -2.40625 38.2578125 C-3.30537109 36.66501465 -3.30537109 36.66501465 -4.22265625 35.04003906 C-5.38530406 33.05140026 -6.60035211 31.09226511 -7.87109375 29.17089844 C-12.08375958 22.77309131 -12.08375958 22.77309131 -11.66015625 18.86328125 C-11.11230469 17.91839844 -10.56445312 16.97351563 -10 16 C-9.66468262 15.39075684 -9.32936523 14.78151367 -8.98388672 14.15380859 C-7.85063679 12.1314622 -6.65551926 10.15980608 -5.4375 8.1875 C-5.02564453 7.50751953 -4.61378906 6.82753906 -4.18945312 6.12695312 C-1.16952328 1.16952328 -1.16952328 1.16952328 0 0 Z " fill="#50E7AE" transform="translate(118,41)"/>
<path d="M0 0 C2.52197266 -0.34057617 2.52197266 -0.34057617 5.6640625 -0.29296875 C6.78554687 -0.28330078 7.90703125 -0.27363281 9.0625 -0.26367188 C10.238125 -0.23853516 11.41375 -0.21339844 12.625 -0.1875 C13.80835938 -0.17396484 14.99171875 -0.16042969 16.2109375 -0.14648438 C19.14107539 -0.11103916 22.07031459 -0.06162769 25 0 C23.5839494 3.78518732 21.84578935 7.19749321 19.83203125 10.69921875 C19.19386475 11.81248535 18.55569824 12.92575195 17.89819336 14.07275391 C17.20304466 15.27771682 16.5078113 16.4826309 15.8125 17.6875 C15.09031382 18.94434799 14.3683941 20.20134912 13.64672852 21.45849609 C11.79256933 24.68637148 9.93436047 27.91189349 8.07458496 31.13653564 C6.42607817 33.99525204 4.77968312 36.85518454 3.1328125 39.71484375 C0.68132476 43.96915151 -1.77343867 48.22154725 -4.23046875 52.47265625 C-6.54727253 56.48163834 -8.85989005 60.49297338 -11.16716003 64.50744629 C-12.56518138 66.9398684 -13.96432129 69.37164631 -15.36349487 71.80340576 C-16.35740531 73.53190132 -17.34973753 75.26130407 -18.34204102 76.99072266 C-18.93815186 78.02632324 -19.5342627 79.06192383 -20.1484375 80.12890625 C-20.67614746 81.04744385 -21.20385742 81.96598145 -21.74755859 82.91235352 C-23 85 -23 85 -24 86 C-25.85369611 86.08737645 -27.71067541 86.10698153 -29.56640625 86.09765625 C-30.69111328 86.09443359 -31.81582031 86.09121094 -32.97460938 86.08789062 C-34.15861328 86.07951172 -35.34261719 86.07113281 -36.5625 86.0625 C-37.75037109 86.05798828 -38.93824219 86.05347656 -40.16210938 86.04882812 C-43.10812226 86.03699675 -46.05403681 86.02051287 -49 86 C-47.63527177 82.36739655 -46.0019884 79.09038593 -44.05078125 75.73828125 C-43.16132812 74.20397461 -43.16132812 74.20397461 -42.25390625 72.63867188 C-41.61324219 71.54103516 -40.97257812 70.44339844 -40.3125 69.3125 C-39.6376662 68.15059652 -38.96319344 66.98848329 -38.2890625 65.82617188 C-36.88892911 63.4127596 -35.48724981 61.0002554 -34.08447266 58.58837891 C-30.87508712 53.06732896 -27.68883044 47.53293759 -24.5 42 C-23.26700159 39.86323825 -22.03392817 37.72651979 -20.80078125 35.58984375 C-18.48309509 31.57280369 -16.16739874 27.55462951 -13.85409546 23.5350647 C-12.46671905 21.12456252 -11.07860376 18.71448624 -9.69042969 16.30444336 C-8.70826185 14.59856032 -7.72716615 12.89206014 -6.74609375 11.18554688 C-6.153125 10.15623047 -5.56015625 9.12691406 -4.94921875 8.06640625 C-4.42674561 7.15834229 -3.90427246 6.25027832 -3.3659668 5.31469727 C-2.30022034 3.50873799 -1.16319248 1.74478871 0 0 Z " fill="#96E756" transform="translate(66,62)"/>
<path d="M0 0 C3.77016416 1.25672139 4.00711403 2.29562331 5.86328125 5.72265625 C6.41338867 6.72425781 6.96349609 7.72585937 7.53027344 8.7578125 C8.1184082 9.84835938 8.70654297 10.93890625 9.3125 12.0625 C10.57234997 14.35649607 11.83411932 16.6494389 13.09765625 18.94140625 C13.4201535 19.52834259 13.74265076 20.11527893 14.07492065 20.72000122 C17.36920314 26.70357344 20.79586182 32.60742234 24.25 38.5 C24.8267749 39.48637451 25.4035498 40.47274902 25.99780273 41.48901367 C28.68250653 46.07294358 31.38181711 50.64771196 34.1015625 55.2109375 C34.57303711 56.00435547 35.04451172 56.79777344 35.53027344 57.61523438 C36.40185797 59.07990149 37.27727724 60.54229613 38.15722656 62.00195312 C41 66.7778125 41 66.7778125 41 69 C32.75397536 70.5151706 24.08704872 71.73741307 16 69 C9.77847005 63.74209579 6.81589763 55.71375574 3.59570312 48.41845703 C1.98401021 44.96574525 0.17154009 41.75708817 -1.796875 38.49609375 C-2.41723633 37.46750244 -3.03759766 36.43891113 -3.67675781 35.37915039 C-4.869734 33.4134873 -6.06684064 31.4503236 -7.26855469 29.48999023 C-11.10305676 22.8770788 -11.10305676 22.8770788 -10.6328125 18.875 C-10.09398438 17.92625 -9.55515625 16.9775 -9 16 C-8.66000977 15.35498535 -8.32001953 14.7099707 -7.96972656 14.04541016 C-6.81616849 11.87689982 -5.60516502 9.75087893 -4.375 7.625 C-3.95476562 6.88894531 -3.53453125 6.15289062 -3.1015625 5.39453125 C-2.07247236 3.5936235 -1.03689244 1.79642682 0 0 Z " fill="#6AE78C" transform="translate(95,79)"/>
<path d="M0 0 C2.62400522 2.37409996 4.44568209 4.81364829 6 8 C5.49057459 12.47758127 2.94669398 14.30314147 -0.36328125 17.06640625 C-19.69229655 31.24101747 -39.84720229 35.29724817 -63.50878906 32.72753906 C-78.91979409 30.2978451 -94.14483357 22.12237053 -105 11 C-103.66511872 7.40608886 -102.03977277 4.24509304 -100 1 C-96.40852225 2.58870075 -93.62355347 4.80780266 -90.5625 7.25 C-75.40031122 18.90780913 -57.85159709 22.99783933 -39 21 C-33.42423385 19.9753732 -28.24165308 18.12372251 -23 16 C-21.60201172 15.44119141 -21.60201172 15.44119141 -20.17578125 14.87109375 C-12.4962984 11.41110697 -5.92943787 5.92943787 0 0 Z " fill="#70E582" transform="translate(148,149)"/>
<path d="M0 0 C0 5.85660292 -4.37174956 11.50854878 -8 16 C-10.61974262 18.2732982 -13.31821218 20.14969374 -16.203125 22.0703125 C-28.66765831 30.67014414 -37.33442662 44.14372947 -41.39453125 58.62890625 C-42.07136273 62.39732928 -42.139789 66.06224878 -42.1875 69.875 C-42.32193613 79.08723577 -46.59626333 85.7673063 -52 93 C-52.33 93 -52.66 93 -53 93 C-58.00840339 73.99489785 -54.95517751 52.8504783 -45.25 35.8125 C-33.85418712 18.14031303 -19.35798152 7.45972313 0 0 Z " fill="#A0E345" transform="translate(76,30)"/>
<path d="M0 0 C5.23880081 0.54166613 8.98354081 2.29879393 13.5 4.8125 C14.45712891 5.32780273 14.45712891 5.32780273 15.43359375 5.85351562 C21.65804044 9.24577543 27.08206376 12.84216443 32 18 C32.51175781 18.45632812 33.02351563 18.91265625 33.55078125 19.3828125 C45.46947029 30.28772798 53.67439206 46.94334044 55 63 C55.15596831 66.58364401 55.22128348 70.16321404 55.25 73.75 C55.25942627 74.64976563 55.26885254 75.54953125 55.27856445 76.4765625 C55.2528706 81.7045348 54.70351079 86.05170675 53 91 C46.60155778 85.54947514 43.9431482 79.51273817 43.19726562 71.28955078 C43.13216797 70.47212402 43.06707031 69.65469727 43 68.8125 C41.86357411 54.89128288 37.45095896 44.26233376 29 33 C28.51789063 32.33355469 28.03578125 31.66710937 27.5390625 30.98046875 C23.9063082 26.32928333 19.33074489 23.21636784 14.54296875 19.82421875 C7.98678221 15.12108647 3.90348326 8.98577264 0 2 C0 1.34 0 0.68 0 0 Z " fill="#3FE4BF" transform="translate(121,31)"/>
<path d="M0 0 C1.5631897 0.00785522 1.5631897 0.00785522 3.15795898 0.01586914 C4.28266602 0.0190918 5.40737305 0.02231445 6.56616211 0.02563477 C7.75016602 0.03401367 8.93416992 0.04239258 10.15405273 0.05102539 C11.34192383 0.05553711 12.52979492 0.06004883 13.75366211 0.06469727 C16.69967499 0.07652864 19.64558954 0.09301252 22.59155273 0.11352539 C22.25671875 0.76434082 21.92188477 1.41515625 21.5769043 2.08569336 C18.73216388 7.669032 18.73216388 7.669032 16.45092773 13.49633789 C14.94465534 17.21958867 13.94629515 18.80094942 10.59155273 21.11352539 C2.37892483 22.53139736 -6.14434131 21.77409954 -14.40844727 21.11352539 C-11.81046424 15.83013967 -9.22686975 10.5816233 -6.15844727 5.55102539 C-5.65829102 4.72473633 -5.15813477 3.89844727 -4.64282227 3.04711914 C-2.78128244 0.13109948 -2.78128244 0.13109948 0 0 Z " fill="#77E77D" transform="translate(88.408447265625,27.886474609375)"/>
<path d="M0 0 C0.66 0 1.32 0 2 0 C3.94068489 3.44951092 5.87949821 6.90006641 7.81665039 10.3515625 C8.79672001 12.09689853 9.77823114 13.84142485 10.75976562 15.5859375 C11.38173828 16.69453125 12.00371094 17.803125 12.64453125 18.9453125 C13.21534424 19.96125488 13.78615723 20.97719727 14.37426758 22.02392578 C15.99046816 24.98255096 17.51139105 27.97546208 19 31 C14.93846834 31.23272688 10.87864757 31.37454311 6.8125 31.5 C5.66201172 31.56703125 4.51152344 31.6340625 3.32617188 31.703125 C-4.93567497 31.89470406 -4.93567497 31.89470406 -7.95166016 29.359375 C-10.03934012 26.28598658 -11.1305504 24.27586751 -10.74511719 20.5090332 C-9.98592641 17.95260998 -9.03094991 15.88989921 -7.71484375 13.57421875 C-7.26689453 12.77822266 -6.81894531 11.98222656 -6.35742188 11.16210938 C-5.88884766 10.34548828 -5.42027344 9.52886719 -4.9375 8.6875 C-4.46505859 7.85154297 -3.99261719 7.01558594 -3.50585938 6.15429688 C-2.34332244 4.09930735 -1.17457909 2.04812263 0 0 Z " fill="#84E66B" transform="translate(73,117)"/>
</svg>
